<svg width="1200" height="572" viewBox="0 0 1350 572" fill="none" xmlns="http://www.w3.org/2000/svg">
<g opacity="0.1" clip-path="url(#clip0)">
<path d="M209.178 338.139C209.178 335.914 210.982 334.11 213.207 334.11C215.431 334.11 217.235 335.914 217.235 338.139C217.235 340.363 215.431 342.167 213.207 342.167C211.007 342.167 209.178 340.363 209.178 338.139Z" fill="url(#paint0_linear)"/>
<path d="M213.899 246.82H212.564V335.791H213.899V246.82Z" fill="url(#paint1_linear)"/>
<path d="M26.4417 228.581C26.4417 226.357 28.2458 224.552 30.4701 224.552C32.6944 224.552 34.4985 226.357 34.4985 228.581C34.4985 230.805 32.6944 232.609 30.4701 232.609C28.2458 232.609 26.4417 230.805 26.4417 228.581Z" fill="url(#paint2_linear)"/>
<path d="M31.1374 137.262H29.8028V226.258H31.1374V137.262Z" fill="url(#paint3_linear)"/>
<path d="M76.5126 133.901C76.5126 131.677 78.3167 129.873 80.541 129.873C82.7653 129.873 84.5694 131.677 84.5694 133.901C84.5694 136.125 82.7653 137.929 80.541 137.929C78.3167 137.929 76.5126 136.125 76.5126 133.901Z" fill="url(#paint4_linear)"/>
<path d="M81.2329 42.5822H79.8984V131.553H81.2329V42.5822Z" fill="url(#paint5_linear)"/>
<path d="M116.747 154.34C116.747 152.115 118.551 150.311 120.776 150.311C123 150.311 124.804 152.115 124.804 154.34C124.804 156.564 123 158.368 120.776 158.368C118.576 158.393 116.747 156.589 116.747 154.34Z" fill="url(#paint6_linear)"/>
<path d="M121.468 63.0455H120.133V152.041H121.468V63.0455Z" fill="url(#paint7_linear)"/>
<path d="M182.388 384.082C182.388 381.858 184.192 380.054 186.416 380.054C188.641 380.054 190.445 381.858 190.445 384.082C190.445 386.307 188.641 388.111 186.416 388.111C184.192 388.111 182.388 386.307 182.388 384.082Z" fill="url(#paint8_linear)"/>
<path d="M187.108 292.764H185.774V381.735H187.108V292.764Z" fill="url(#paint9_linear)"/>
<path d="M244.742 124.954C244.742 122.73 246.546 120.926 248.77 120.926C250.994 120.926 252.799 122.73 252.799 124.954C252.799 127.179 250.994 128.983 248.77 128.983C246.546 128.983 244.742 127.179 244.742 124.954Z" fill="url(#paint10_linear)"/>
<path d="M249.438 33.6603H248.103V122.631H249.438V33.6603Z" fill="url(#paint11_linear)"/>
<path d="M133.553 121C133.553 118.776 135.357 116.972 137.581 116.972C139.806 116.972 141.61 118.776 141.61 121C141.61 123.224 139.806 125.029 137.581 125.029C135.357 125.029 133.553 123.224 133.553 121Z" fill="url(#paint12_linear)"/>
<path d="M138.273 74.1916H136.939V118.677H138.273V74.1916Z" fill="url(#paint13_linear)"/>
<path d="M285.495 344.663C285.495 342.439 287.3 340.635 289.524 340.635C291.748 340.635 293.552 342.439 293.552 344.663C293.552 346.888 291.748 348.692 289.524 348.692C287.324 348.692 285.495 346.888 285.495 344.663Z" fill="url(#paint14_linear)"/>
<path d="M290.216 297.83H288.881V342.315H290.216V297.83Z" fill="url(#paint15_linear)"/>
<path d="M-1.21344 33.8086C-1.21344 31.5843 0.590687 29.7802 2.81496 29.7802C5.03923 29.7802 6.84337 31.5843 6.84337 33.8086C6.84337 36.0329 5.03923 37.837 2.81496 37.837C0.615401 37.837 -1.21344 36.0329 -1.21344 33.8086Z" fill="url(#paint16_linear)"/>
<path d="M3.50693 -13H2.17236V31.4855H3.50693V-13Z" fill="url(#paint17_linear)"/>
<path d="M53.7261 108.94C53.7261 106.715 55.5302 104.911 57.7545 104.911C59.9787 104.911 61.7829 106.715 61.7829 108.94C61.7829 111.164 59.9787 112.968 57.7545 112.968C55.5302 112.968 53.7261 111.164 53.7261 108.94Z" fill="url(#paint18_linear)"/>
<path d="M58.4465 62.1064H57.1119V106.592H58.4465V62.1064Z" fill="url(#paint19_linear)"/>
<path d="M183.97 47.3026C183.97 45.0783 185.774 43.2742 187.998 43.2742C190.222 43.2742 192.027 45.0783 192.027 47.3026C192.027 49.5269 190.222 51.331 187.998 51.331C185.799 51.3557 183.97 49.5269 183.97 47.3026Z" fill="url(#paint20_linear)"/>
<path d="M188.69 0.493988H187.356V44.9795H188.69V0.493988Z" fill="url(#paint21_linear)"/>
<path d="M127.918 372.862C127.918 370.638 129.722 368.834 131.946 368.834C134.171 368.834 135.975 370.638 135.975 372.862C135.975 375.086 134.171 376.89 131.946 376.89C129.722 376.89 127.918 375.086 127.918 372.862Z" fill="url(#paint22_linear)"/>
<path d="M132.614 281.543H131.279V370.539H132.614V281.543Z" fill="url(#paint23_linear)"/>
<path d="M243.852 325.633C243.852 323.409 245.656 321.605 247.88 321.605C250.105 321.605 251.909 323.409 251.909 325.633C251.909 327.858 250.105 329.662 247.88 329.662C245.656 329.686 243.852 327.882 243.852 325.633Z" fill="url(#paint24_linear)"/>
<path d="M248.548 234.339H247.213V323.335H248.548V234.339Z" fill="url(#paint25_linear)"/>
<path d="M49.6977 549.815C49.6977 547.591 51.5018 545.787 53.7261 545.787C55.9504 545.787 57.7545 547.591 57.7545 549.815C57.7545 552.04 55.9504 553.844 53.7261 553.844C51.5018 553.869 49.6977 552.04 49.6977 549.815Z" fill="url(#paint26_linear)"/>
<path d="M54.3934 240.468H53.0588V547.492H54.3934V240.468Z" fill="url(#paint27_linear)"/>
<path d="M220.522 374.024C220.522 371.8 222.326 369.995 224.55 369.995C226.775 369.995 228.579 371.8 228.579 374.024C228.579 376.248 226.775 378.052 224.55 378.052C222.326 378.052 220.522 376.248 220.522 374.024Z" fill="url(#paint28_linear)"/>
<path d="M225.218 64.6766H223.883V371.701H225.218V64.6766Z" fill="url(#paint29_linear)"/>
<path d="M112.002 464.008C112.002 461.784 113.806 459.98 116.03 459.98C118.255 459.98 120.059 461.784 120.059 464.008C120.059 466.232 118.255 468.036 116.03 468.036C113.806 468.061 112.002 466.232 112.002 464.008Z" fill="url(#paint30_linear)"/>
<path d="M116.723 154.686H115.388V461.71H116.723V154.686Z" fill="url(#paint31_linear)"/>
<path d="M197.291 225.862C197.291 223.638 199.095 221.834 201.319 221.834C203.543 221.834 205.347 223.638 205.347 225.862C205.347 228.087 203.543 229.891 201.319 229.891C199.095 229.915 197.291 228.111 197.291 225.862Z" fill="url(#paint32_linear)"/>
<path d="M202.011 53.6788H200.676V223.539H202.011V53.6788Z" fill="url(#paint33_linear)"/>
<path d="M18.0142 316.316C18.0142 314.092 19.8183 312.288 22.0426 312.288C24.2668 312.288 26.071 314.092 26.071 316.316C26.071 318.54 24.2668 320.345 22.0426 320.345C19.8183 320.345 18.0142 318.54 18.0142 316.316Z" fill="url(#paint34_linear)"/>
<path d="M22.7345 144.133H21.4V313.993H22.7345V144.133Z" fill="url(#paint35_linear)"/>
<path d="M1340.77 380.722C1340.77 378.497 1342.58 376.693 1344.8 376.693C1347.03 376.693 1348.83 378.497 1348.83 380.722C1348.83 382.946 1347.03 384.75 1344.8 384.75C1342.58 384.775 1340.77 382.946 1340.77 380.722Z" fill="url(#paint36_linear)"/>
<path d="M1345.47 316.366H1344.14V378.423H1345.47V316.366Z" fill="url(#paint37_linear)"/>
<path d="M1236.85 290.614C1236.85 288.389 1238.66 286.585 1240.88 286.585C1243.1 286.585 1244.91 288.389 1244.91 290.614C1244.91 292.838 1243.1 294.642 1240.88 294.642C1238.66 294.642 1236.85 292.838 1236.85 290.614Z" fill="url(#paint38_linear)"/>
<path d="M1241.55 127.673H1240.21V288.291H1241.55V127.673Z" fill="url(#paint39_linear)"/>
<path d="M1190.91 151.745C1190.91 149.521 1192.71 147.717 1194.94 147.717C1197.16 147.717 1198.96 149.521 1198.96 151.745C1198.96 153.969 1197.16 155.773 1194.94 155.773C1192.74 155.798 1190.91 153.994 1190.91 151.745Z" fill="url(#paint40_linear)"/>
<path d="M1195.63 60.4508H1194.29V149.446H1195.63V60.4508Z" fill="url(#paint41_linear)"/>
<path d="M1315.64 221.884C1315.64 219.659 1317.44 217.855 1319.67 217.855C1321.89 217.855 1323.7 219.659 1323.7 221.884C1323.7 224.108 1321.89 225.912 1319.67 225.912C1317.44 225.937 1315.64 224.108 1315.64 221.884Z" fill="url(#paint42_linear)"/>
<path d="M1320.34 130.59H1319V219.585H1320.34V130.59Z" fill="url(#paint43_linear)"/>
<path d="M1303.8 296.273C1303.8 294.049 1305.61 292.245 1307.83 292.245C1310.06 292.245 1311.86 294.049 1311.86 296.273C1311.86 298.498 1310.06 300.302 1307.83 300.302C1305.61 300.326 1303.8 298.498 1303.8 296.273Z" fill="url(#paint44_linear)"/>
<path d="M1308.52 127.055H1307.19V293.95H1308.52V127.055Z" fill="url(#paint45_linear)"/>
<path d="M1327.26 265.677C1327.26 263.453 1329.06 261.649 1331.28 261.649C1333.51 261.649 1335.31 263.453 1335.31 265.677C1335.31 267.901 1333.51 269.706 1331.28 269.706C1329.06 269.706 1327.26 267.901 1327.26 265.677Z" fill="url(#paint46_linear)"/>
<path d="M1331.98 130.12H1330.64V263.354H1331.98V130.12Z" fill="url(#paint47_linear)"/>
<path d="M1269.77 442.655C1269.77 440.431 1271.58 438.627 1273.8 438.627C1276.02 438.627 1277.83 440.431 1277.83 442.655C1277.83 444.879 1276.02 446.684 1273.8 446.684C1271.6 446.684 1269.77 444.879 1269.77 442.655Z" fill="url(#paint48_linear)"/>
<path d="M1274.49 133.308H1273.16V440.332H1274.49V133.308Z" fill="url(#paint49_linear)"/>
<path d="M1201.61 510.248C1201.61 508.024 1203.41 506.22 1205.64 506.22C1207.86 506.22 1209.67 508.024 1209.67 510.248C1209.67 512.473 1207.86 514.277 1205.64 514.277C1203.44 514.277 1201.61 512.473 1201.61 510.248Z" fill="url(#paint50_linear)"/>
<path d="M1206.33 200.901H1205V507.925H1206.33V200.901Z" fill="url(#paint51_linear)"/>
<path d="M1148.89 428.197C1148.89 425.973 1150.7 424.169 1152.92 424.169C1155.15 424.169 1156.95 425.973 1156.95 428.197C1156.95 430.422 1155.15 432.226 1152.92 432.226C1150.7 432.251 1148.89 430.446 1148.89 428.197Z" fill="url(#paint52_linear)"/>
<path d="M1153.59 256.014H1152.26V425.874H1153.59V256.014Z" fill="url(#paint53_linear)"/>
<path d="M1218.34 243.089C1218.34 240.864 1220.14 239.06 1222.37 239.06C1224.59 239.06 1226.4 240.864 1226.4 243.089C1226.4 245.313 1224.59 247.117 1222.37 247.117C1220.14 247.142 1218.34 245.338 1218.34 243.089Z" fill="url(#paint54_linear)"/>
<path d="M1223.06 117.763H1221.73V240.79H1223.06V117.763Z" fill="url(#paint55_linear)"/>
</g>
<defs>
<linearGradient id="paint0_linear" x1="213.224" y1="315.457" x2="213.224" y2="245.437" gradientUnits="userSpaceOnUse">
<stop stop-color="#A4FFFF"/>
<stop offset="1" stop-color="#A4FFFF" stop-opacity="0"/>
</linearGradient>
<linearGradient id="paint1_linear" x1="213.227" y1="315.456" x2="213.227" y2="245.438" gradientUnits="userSpaceOnUse">
<stop stop-color="#A4FFFF"/>
<stop offset="1" stop-color="#A4FFFF" stop-opacity="0"/>
</linearGradient>
<linearGradient id="paint2_linear" x1="30.4699" y1="205.897" x2="30.4699" y2="135.856" gradientUnits="userSpaceOnUse">
<stop stop-color="#A4FFFF"/>
<stop offset="1" stop-color="#A4FFFF" stop-opacity="0"/>
</linearGradient>
<linearGradient id="paint3_linear" x1="30.4696" y1="205.905" x2="30.4696" y2="135.884" gradientUnits="userSpaceOnUse">
<stop stop-color="#A4FFFF"/>
<stop offset="1" stop-color="#A4FFFF" stop-opacity="0"/>
</linearGradient>
<linearGradient id="paint4_linear" x1="80.557" y1="111.226" x2="80.557" y2="41.2065" gradientUnits="userSpaceOnUse">
<stop stop-color="#A4FFFF"/>
<stop offset="1" stop-color="#A4FFFF" stop-opacity="0"/>
</linearGradient>
<linearGradient id="paint5_linear" x1="80.5568" y1="111.225" x2="80.5568" y2="41.2073" gradientUnits="userSpaceOnUse">
<stop stop-color="#A4FFFF"/>
<stop offset="1" stop-color="#A4FFFF" stop-opacity="0"/>
</linearGradient>
<linearGradient id="paint6_linear" x1="120.795" y1="131.676" x2="120.795" y2="61.6535" gradientUnits="userSpaceOnUse">
<stop stop-color="#A4FFFF"/>
<stop offset="1" stop-color="#A4FFFF" stop-opacity="0"/>
</linearGradient>
<linearGradient id="paint7_linear" x1="120.795" y1="131.676" x2="120.795" y2="61.6568" gradientUnits="userSpaceOnUse">
<stop stop-color="#A4FFFF"/>
<stop offset="1" stop-color="#A4FFFF" stop-opacity="0"/>
</linearGradient>
<linearGradient id="paint8_linear" x1="186.431" y1="361.411" x2="186.431" y2="291.41" gradientUnits="userSpaceOnUse">
<stop stop-color="#A4FFFF"/>
<stop offset="1" stop-color="#A4FFFF" stop-opacity="0"/>
</linearGradient>
<linearGradient id="paint9_linear" x1="186.432" y1="361.404" x2="186.432" y2="291.386" gradientUnits="userSpaceOnUse">
<stop stop-color="#A4FFFF"/>
<stop offset="1" stop-color="#A4FFFF" stop-opacity="0"/>
</linearGradient>
<linearGradient id="paint10_linear" x1="248.771" y1="102.282" x2="248.771" y2="32.2625" gradientUnits="userSpaceOnUse">
<stop stop-color="#A4FFFF"/>
<stop offset="1" stop-color="#A4FFFF" stop-opacity="0"/>
</linearGradient>
<linearGradient id="paint11_linear" x1="248.77" y1="102.281" x2="248.77" y2="32.263" gradientUnits="userSpaceOnUse">
<stop stop-color="#A4FFFF"/>
<stop offset="1" stop-color="#A4FFFF" stop-opacity="0"/>
</linearGradient>
<linearGradient id="paint12_linear" x1="137.593" y1="98.3314" x2="137.593" y2="28.3118" gradientUnits="userSpaceOnUse">
<stop stop-color="#A4FFFF"/>
<stop offset="1" stop-color="#A4FFFF" stop-opacity="0"/>
</linearGradient>
<linearGradient id="paint13_linear" x1="137.594" y1="108.507" x2="137.594" y2="73.4979" gradientUnits="userSpaceOnUse">
<stop stop-color="#A4FFFF"/>
<stop offset="1" stop-color="#A4FFFF" stop-opacity="0"/>
</linearGradient>
<linearGradient id="paint14_linear" x1="289.542" y1="321.981" x2="289.542" y2="251.961" gradientUnits="userSpaceOnUse">
<stop stop-color="#A4FFFF"/>
<stop offset="1" stop-color="#A4FFFF" stop-opacity="0"/>
</linearGradient>
<linearGradient id="paint15_linear" x1="289.542" y1="332.157" x2="289.542" y2="297.148" gradientUnits="userSpaceOnUse">
<stop stop-color="#A4FFFF"/>
<stop offset="1" stop-color="#A4FFFF" stop-opacity="0"/>
</linearGradient>
<linearGradient id="paint16_linear" x1="2.83523" y1="11.1391" x2="2.83523" y2="-58.8808" gradientUnits="userSpaceOnUse">
<stop stop-color="#A4FFFF"/>
<stop offset="1" stop-color="#A4FFFF" stop-opacity="0"/>
</linearGradient>
<linearGradient id="paint17_linear" x1="2.83421" y1="21.3154" x2="2.83421" y2="-13.6945" gradientUnits="userSpaceOnUse">
<stop stop-color="#A4FFFF"/>
<stop offset="1" stop-color="#A4FFFF" stop-opacity="0"/>
</linearGradient>
<linearGradient id="paint18_linear" x1="57.771" y1="86.2509" x2="57.771" y2="16.2097" gradientUnits="userSpaceOnUse">
<stop stop-color="#A4FFFF"/>
<stop offset="1" stop-color="#A4FFFF" stop-opacity="0"/>
</linearGradient>
<linearGradient id="paint19_linear" x1="57.7711" y1="96.4351" x2="57.7711" y2="61.4255" gradientUnits="userSpaceOnUse">
<stop stop-color="#A4FFFF"/>
<stop offset="1" stop-color="#A4FFFF" stop-opacity="0"/>
</linearGradient>
<linearGradient id="paint20_linear" x1="188.018" y1="24.6352" x2="188.018" y2="-45.3847" gradientUnits="userSpaceOnUse">
<stop stop-color="#A4FFFF"/>
<stop offset="1" stop-color="#A4FFFF" stop-opacity="0"/>
</linearGradient>
<linearGradient id="paint21_linear" x1="188.02" y1="34.8103" x2="188.02" y2="-0.195785" gradientUnits="userSpaceOnUse">
<stop stop-color="#A4FFFF"/>
<stop offset="1" stop-color="#A4FFFF" stop-opacity="0"/>
</linearGradient>
<linearGradient id="paint22_linear" x1="131.957" y1="350.188" x2="131.957" y2="280.168" gradientUnits="userSpaceOnUse">
<stop stop-color="#A4FFFF"/>
<stop offset="1" stop-color="#A4FFFF" stop-opacity="0"/>
</linearGradient>
<linearGradient id="paint23_linear" x1="131.956" y1="350.188" x2="131.956" y2="280.168" gradientUnits="userSpaceOnUse">
<stop stop-color="#A4FFFF"/>
<stop offset="1" stop-color="#A4FFFF" stop-opacity="0"/>
</linearGradient>
<linearGradient id="paint24_linear" x1="247.887" y1="302.964" x2="247.887" y2="232.923" gradientUnits="userSpaceOnUse">
<stop stop-color="#A4FFFF"/>
<stop offset="1" stop-color="#A4FFFF" stop-opacity="0"/>
</linearGradient>
<linearGradient id="paint25_linear" x1="247.888" y1="302.97" x2="247.888" y2="232.952" gradientUnits="userSpaceOnUse">
<stop stop-color="#A4FFFF"/>
<stop offset="1" stop-color="#A4FFFF" stop-opacity="0"/>
</linearGradient>
<linearGradient id="paint26_linear" x1="53.7345" y1="510.33" x2="53.7345" y2="385.631" gradientUnits="userSpaceOnUse">
<stop stop-color="#A4FFFF"/>
<stop offset="1" stop-color="#A4FFFF" stop-opacity="0"/>
</linearGradient>
<linearGradient id="paint27_linear" x1="53.7358" y1="479.128" x2="53.7358" y2="249.739" gradientUnits="userSpaceOnUse">
<stop stop-color="#A4FFFF"/>
<stop offset="1" stop-color="#A4FFFF" stop-opacity="0"/>
</linearGradient>
<linearGradient id="paint28_linear" x1="224.548" y1="334.534" x2="224.548" y2="209.835" gradientUnits="userSpaceOnUse">
<stop stop-color="#A4FFFF"/>
<stop offset="1" stop-color="#A4FFFF" stop-opacity="0"/>
</linearGradient>
<linearGradient id="paint29_linear" x1="224.55" y1="303.331" x2="224.55" y2="73.9432" gradientUnits="userSpaceOnUse">
<stop stop-color="#A4FFFF"/>
<stop offset="1" stop-color="#A4FFFF" stop-opacity="0"/>
</linearGradient>
<linearGradient id="paint30_linear" x1="116.045" y1="424.523" x2="116.045" y2="299.825" gradientUnits="userSpaceOnUse">
<stop stop-color="#A4FFFF"/>
<stop offset="1" stop-color="#A4FFFF" stop-opacity="0"/>
</linearGradient>
<linearGradient id="paint31_linear" x1="116.046" y1="393.319" x2="116.046" y2="163.932" gradientUnits="userSpaceOnUse">
<stop stop-color="#A4FFFF"/>
<stop offset="1" stop-color="#A4FFFF" stop-opacity="0"/>
</linearGradient>
<linearGradient id="paint32_linear" x1="201.33" y1="186.369" x2="201.33" y2="61.632" gradientUnits="userSpaceOnUse">
<stop stop-color="#A4FFFF"/>
<stop offset="1" stop-color="#A4FFFF" stop-opacity="0"/>
</linearGradient>
<linearGradient id="paint33_linear" x1="201.33" y1="185.724" x2="201.33" y2="58.8085" gradientUnits="userSpaceOnUse">
<stop stop-color="#A4FFFF"/>
<stop offset="1" stop-color="#A4FFFF" stop-opacity="0"/>
</linearGradient>
<linearGradient id="paint34_linear" x1="22.0552" y1="276.828" x2="22.0552" y2="152.167" gradientUnits="userSpaceOnUse">
<stop stop-color="#A4FFFF"/>
<stop offset="1" stop-color="#A4FFFF" stop-opacity="0"/>
</linearGradient>
<linearGradient id="paint35_linear" x1="22.0551" y1="276.159" x2="22.0551" y2="149.245" gradientUnits="userSpaceOnUse">
<stop stop-color="#A4FFFF"/>
<stop offset="1" stop-color="#A4FFFF" stop-opacity="0"/>
</linearGradient>
<linearGradient id="paint36_linear" x1="1344.8" y1="358.066" x2="1344.8" y2="288.068" gradientUnits="userSpaceOnUse">
<stop stop-color="#A4FFFF"/>
<stop offset="1" stop-color="#A4FFFF" stop-opacity="0"/>
</linearGradient>
<linearGradient id="paint37_linear" x1="1344.8" y1="364.217" x2="1344.8" y2="315.388" gradientUnits="userSpaceOnUse">
<stop stop-color="#A4FFFF"/>
<stop offset="1" stop-color="#A4FFFF" stop-opacity="0"/>
</linearGradient>
<linearGradient id="paint38_linear" x1="1240.88" y1="267.943" x2="1240.88" y2="197.923" gradientUnits="userSpaceOnUse">
<stop stop-color="#A4FFFF"/>
<stop offset="1" stop-color="#A4FFFF" stop-opacity="0"/>
</linearGradient>
<linearGradient id="paint39_linear" x1="1240.88" y1="251.561" x2="1240.88" y2="125.179" gradientUnits="userSpaceOnUse">
<stop stop-color="#A4FFFF"/>
<stop offset="1" stop-color="#A4FFFF" stop-opacity="0"/>
</linearGradient>
<linearGradient id="paint40_linear" x1="1194.96" y1="129.083" x2="1194.96" y2="59.063" gradientUnits="userSpaceOnUse">
<stop stop-color="#A4FFFF"/>
<stop offset="1" stop-color="#A4FFFF" stop-opacity="0"/>
</linearGradient>
<linearGradient id="paint41_linear" x1="1194.96" y1="129.083" x2="1194.96" y2="59.0636" gradientUnits="userSpaceOnUse">
<stop stop-color="#A4FFFF"/>
<stop offset="1" stop-color="#A4FFFF" stop-opacity="0"/>
</linearGradient>
<linearGradient id="paint42_linear" x1="1319.67" y1="199.207" x2="1319.67" y2="129.166" gradientUnits="userSpaceOnUse">
<stop stop-color="#A4FFFF"/>
<stop offset="1" stop-color="#A4FFFF" stop-opacity="0"/>
</linearGradient>
<linearGradient id="paint43_linear" x1="1319.67" y1="199.213" x2="1319.67" y2="129.194" gradientUnits="userSpaceOnUse">
<stop stop-color="#A4FFFF"/>
<stop offset="1" stop-color="#A4FFFF" stop-opacity="0"/>
</linearGradient>
<linearGradient id="paint44_linear" x1="1307.85" y1="256.788" x2="1307.85" y2="132.089" gradientUnits="userSpaceOnUse">
<stop stop-color="#A4FFFF"/>
<stop offset="1" stop-color="#A4FFFF" stop-opacity="0"/>
</linearGradient>
<linearGradient id="paint45_linear" x1="1307.85" y1="256.79" x2="1307.85" y2="132.092" gradientUnits="userSpaceOnUse">
<stop stop-color="#A4FFFF"/>
<stop offset="1" stop-color="#A4FFFF" stop-opacity="0"/>
</linearGradient>
<linearGradient id="paint46_linear" x1="1331.3" y1="226.18" x2="1331.3" y2="101.481" gradientUnits="userSpaceOnUse">
<stop stop-color="#A4FFFF"/>
<stop offset="1" stop-color="#A4FFFF" stop-opacity="0"/>
</linearGradient>
<linearGradient id="paint47_linear" x1="1331.3" y1="233.675" x2="1331.3" y2="134.127" gradientUnits="userSpaceOnUse">
<stop stop-color="#A4FFFF"/>
<stop offset="1" stop-color="#A4FFFF" stop-opacity="0"/>
</linearGradient>
<linearGradient id="paint48_linear" x1="1273.82" y1="403.166" x2="1273.82" y2="278.467" gradientUnits="userSpaceOnUse">
<stop stop-color="#A4FFFF"/>
<stop offset="1" stop-color="#A4FFFF" stop-opacity="0"/>
</linearGradient>
<linearGradient id="paint49_linear" x1="1273.82" y1="371.961" x2="1273.82" y2="142.573" gradientUnits="userSpaceOnUse">
<stop stop-color="#A4FFFF"/>
<stop offset="1" stop-color="#A4FFFF" stop-opacity="0"/>
</linearGradient>
<linearGradient id="paint50_linear" x1="1205.66" y1="470.758" x2="1205.66" y2="346.06" gradientUnits="userSpaceOnUse">
<stop stop-color="#A4FFFF"/>
<stop offset="1" stop-color="#A4FFFF" stop-opacity="0"/>
</linearGradient>
<linearGradient id="paint51_linear" x1="1205.66" y1="439.554" x2="1205.66" y2="210.168" gradientUnits="userSpaceOnUse">
<stop stop-color="#A4FFFF"/>
<stop offset="1" stop-color="#A4FFFF" stop-opacity="0"/>
</linearGradient>
<linearGradient id="paint52_linear" x1="1152.93" y1="388.719" x2="1152.93" y2="264.02" gradientUnits="userSpaceOnUse">
<stop stop-color="#A4FFFF"/>
<stop offset="1" stop-color="#A4FFFF" stop-opacity="0"/>
</linearGradient>
<linearGradient id="paint53_linear" x1="1152.93" y1="388.058" x2="1152.93" y2="261.146" gradientUnits="userSpaceOnUse">
<stop stop-color="#A4FFFF"/>
<stop offset="1" stop-color="#A4FFFF" stop-opacity="0"/>
</linearGradient>
<linearGradient id="paint54_linear" x1="1222.39" y1="203.61" x2="1222.39" y2="78.9117" gradientUnits="userSpaceOnUse">
<stop stop-color="#A4FFFF"/>
<stop offset="1" stop-color="#A4FFFF" stop-opacity="0"/>
</linearGradient>
<linearGradient id="paint55_linear" x1="1222.39" y1="213.385" x2="1222.39" y2="121.474" gradientUnits="userSpaceOnUse">
<stop stop-color="#A4FFFF"/>
<stop offset="1" stop-color="#A4FFFF" stop-opacity="0"/>
</linearGradient>
<clipPath id="clip0">
<rect width="1537" height="572" fill="white"/>
</clipPath>
</defs>
</svg>
